<svg xmlns="http://www.w3.org/2000/svg" width="1500" height="200"
     viewBox="0 0 1500 200" preserveAspectRatio="xMinYMid slice" role="img" aria-label="Touchlab Open Source — Kermit">
  <title>Touchlab Open Source — Kermit</title>
  <defs>
    <linearGradient id="tl-divider" x1="0" y1="19.8" x2="0" y2="180.2" gradientUnits="userSpaceOnUse">
      <stop offset="0" stop-color="#38b95f" stop-opacity="0"/>
      <stop offset=".5" stop-color="#38b95f" stop-opacity="1"/>
      <stop offset="1" stop-color="#38b95f" stop-opacity="0"/>
    </linearGradient>
    <clipPath id="tl-panel">
      <rect x="1252" y="9" width="243" height="183"/>
    </clipPath>
  </defs>

  <!-- backdrop -->
  <rect width="1500" height="200" fill="#000000"/>

  <!-- pixel-grid motif -->
  <g clip-path="url(#tl-panel)">
    <rect x="1252" y="9" width="243" height="183" fill="#000000"/>
    <g fill="#38b95f">
      <rect x="1263.0" y="16.0" width="12" height="13" rx="1" opacity="0.02"/>
      <rect x="1293.9" y="16.0" width="12" height="13" rx="1" opacity="0.16"/>
      <rect x="1309.3" y="16.0" width="12" height="13" rx="1" opacity="0.04"/>
      <rect x="1324.8" y="16.0" width="12" height="13" rx="1" opacity="0.05"/>
      <rect x="1340.2" y="16.0" width="12" height="13" rx="1" opacity="0.29"/>
      <rect x="1371.1" y="16.0" width="12" height="13" rx="1" opacity="0.02"/>
      <rect x="1386.6" y="16.0" width="12" height="13" rx="1" opacity="0.41"/>
      <rect x="1402.0" y="16.0" width="12" height="13" rx="1" opacity="0.04"/>
      <rect x="1417.5" y="16.0" width="12" height="13" rx="1" opacity="0.74"/>
      <rect x="1432.9" y="16.0" width="12" height="13" rx="1" opacity="0.02"/>
      <rect x="1448.4" y="16.0" width="12" height="13" rx="1" opacity="0.57"/>
      <rect x="1463.8" y="16.0" width="12" height="13" rx="1" opacity="0.3"/>
      <rect x="1479.3" y="16.0" width="12" height="13" rx="1" opacity="0.85"/>
      <rect x="1278.5" y="31.7" width="12" height="13" rx="1" opacity="0.11"/>
      <rect x="1293.9" y="31.7" width="12" height="13" rx="1" opacity="0.02"/>
      <rect x="1324.8" y="31.7" width="12" height="13" rx="1" opacity="0.12"/>
      <rect x="1340.2" y="31.7" width="12" height="13" rx="1" opacity="0.27"/>
      <rect x="1371.1" y="31.7" width="12" height="13" rx="1" opacity="0.34"/>
      <rect x="1386.6" y="31.7" width="12" height="13" rx="1" opacity="0.03"/>
      <rect x="1402.0" y="31.7" width="12" height="13" rx="1" opacity="0.11"/>
      <rect x="1417.5" y="31.7" width="12" height="13" rx="1" opacity="0.04"/>
      <rect x="1432.9" y="31.7" width="12" height="13" rx="1" opacity="0.51"/>
      <rect x="1448.4" y="31.7" width="12" height="13" rx="1" opacity="0.04"/>
      <rect x="1463.8" y="31.7" width="12" height="13" rx="1" opacity="0.43"/>
      <rect x="1479.3" y="31.7" width="12" height="13" rx="1" opacity="0.86"/>
      <rect x="1263.0" y="47.4" width="12" height="13" rx="1" opacity="0.04"/>
      <rect x="1278.5" y="47.4" width="12" height="13" rx="1" opacity="0.1"/>
      <rect x="1293.9" y="47.4" width="12" height="13" rx="1" opacity="0.02"/>
      <rect x="1309.3" y="47.4" width="12" height="13" rx="1" opacity="0.12"/>
      <rect x="1324.8" y="47.4" width="12" height="13" rx="1" opacity="0.02"/>
      <rect x="1340.2" y="47.4" width="12" height="13" rx="1" opacity="0.05"/>
      <rect x="1355.7" y="47.4" width="12" height="13" rx="1" opacity="0.1"/>
      <rect x="1371.1" y="47.4" width="12" height="13" rx="1" opacity="0.4"/>
      <rect x="1386.6" y="47.4" width="12" height="13" rx="1" opacity="0.05"/>
      <rect x="1402.0" y="47.4" width="12" height="13" rx="1" opacity="0.76"/>
      <rect x="1417.5" y="47.4" width="12" height="13" rx="1" opacity="0.03"/>
      <rect x="1432.9" y="47.4" width="12" height="13" rx="1" opacity="0.42"/>
      <rect x="1448.4" y="47.4" width="12" height="13" rx="1" opacity="0.99"/>
      <rect x="1463.8" y="47.4" width="12" height="13" rx="1" opacity="0.08"/>
      <rect x="1479.3" y="47.4" width="12" height="13" rx="1" opacity="0.69"/>
      <rect x="1309.3" y="63.1" width="12" height="13" rx="1" opacity="0.06"/>
      <rect x="1355.7" y="63.1" width="12" height="13" rx="1" opacity="0.15"/>
      <rect x="1371.1" y="63.1" width="12" height="13" rx="1" opacity="0.02"/>
      <rect x="1386.6" y="63.1" width="12" height="13" rx="1" opacity="0.37"/>
      <rect x="1402.0" y="63.1" width="12" height="13" rx="1" opacity="0.02"/>
      <rect x="1417.5" y="63.1" width="12" height="13" rx="1" opacity="0.63"/>
      <rect x="1432.9" y="63.1" width="12" height="13" rx="1" opacity="0.28"/>
      <rect x="1448.4" y="63.1" width="12" height="13" rx="1" opacity="0.27"/>
      <rect x="1463.8" y="63.1" width="12" height="13" rx="1" opacity="0.95"/>
      <rect x="1479.3" y="63.1" width="12" height="13" rx="1" opacity="0.14"/>
      <rect x="1293.9" y="78.8" width="12" height="13" rx="1" opacity="0.03"/>
      <rect x="1324.8" y="78.8" width="12" height="13" rx="1" opacity="0.2"/>
      <rect x="1340.2" y="78.8" width="12" height="13" rx="1" opacity="0.23"/>
      <rect x="1355.7" y="78.8" width="12" height="13" rx="1" opacity="0.08"/>
      <rect x="1371.1" y="78.8" width="12" height="13" rx="1" opacity="0.09"/>
      <rect x="1386.6" y="78.8" width="12" height="13" rx="1" opacity="0.03"/>
      <rect x="1402.0" y="78.8" width="12" height="13" rx="1" opacity="0.41"/>
      <rect x="1417.5" y="78.8" width="12" height="13" rx="1" opacity="0.03"/>
      <rect x="1432.9" y="78.8" width="12" height="13" rx="1" opacity="0.22"/>
      <rect x="1448.4" y="78.8" width="12" height="13" rx="1" opacity="1.0"/>
      <rect x="1463.8" y="78.8" width="12" height="13" rx="1" opacity="0.42"/>
      <rect x="1479.3" y="78.8" width="12" height="13" rx="1" opacity="0.42"/>
      <rect x="1278.5" y="94.5" width="12" height="13" rx="1" opacity="0.03"/>
      <rect x="1309.3" y="94.5" width="12" height="13" rx="1" opacity="0.04"/>
      <rect x="1324.8" y="94.5" width="12" height="13" rx="1" opacity="0.07"/>
      <rect x="1355.7" y="94.5" width="12" height="13" rx="1" opacity="0.08"/>
      <rect x="1371.1" y="94.5" width="12" height="13" rx="1" opacity="0.37"/>
      <rect x="1386.6" y="94.5" width="12" height="13" rx="1" opacity="0.03"/>
      <rect x="1402.0" y="94.5" width="12" height="13" rx="1" opacity="0.28"/>
      <rect x="1417.5" y="94.5" width="12" height="13" rx="1" opacity="0.78"/>
      <rect x="1432.9" y="94.5" width="12" height="13" rx="1" opacity="0.26"/>
      <rect x="1448.4" y="94.5" width="12" height="13" rx="1" opacity="0.11"/>
      <rect x="1463.8" y="94.5" width="12" height="13" rx="1" opacity="0.76"/>
      <rect x="1479.3" y="94.5" width="12" height="13" rx="1" opacity="0.26"/>
      <rect x="1278.5" y="110.2" width="12" height="13" rx="1" opacity="0.02"/>
      <rect x="1293.9" y="110.2" width="12" height="13" rx="1" opacity="0.03"/>
      <rect x="1309.3" y="110.2" width="12" height="13" rx="1" opacity="0.17"/>
      <rect x="1324.8" y="110.2" width="12" height="13" rx="1" opacity="0.05"/>
      <rect x="1340.2" y="110.2" width="12" height="13" rx="1" opacity="0.02"/>
      <rect x="1355.7" y="110.2" width="12" height="13" rx="1" opacity="0.08"/>
      <rect x="1371.1" y="110.2" width="12" height="13" rx="1" opacity="0.39"/>
      <rect x="1386.6" y="110.2" width="12" height="13" rx="1" opacity="0.12"/>
      <rect x="1402.0" y="110.2" width="12" height="13" rx="1" opacity="0.04"/>
      <rect x="1417.5" y="110.2" width="12" height="13" rx="1" opacity="0.03"/>
      <rect x="1432.9" y="110.2" width="12" height="13" rx="1" opacity="0.22"/>
      <rect x="1448.4" y="110.2" width="12" height="13" rx="1" opacity="0.22"/>
      <rect x="1463.8" y="110.2" width="12" height="13" rx="1" opacity="0.46"/>
      <rect x="1479.3" y="110.2" width="12" height="13" rx="1" opacity="0.9"/>
      <rect x="1278.5" y="125.9" width="12" height="13" rx="1" opacity="0.03"/>
      <rect x="1293.9" y="125.9" width="12" height="13" rx="1" opacity="0.03"/>
      <rect x="1340.2" y="125.9" width="12" height="13" rx="1" opacity="0.3"/>
      <rect x="1371.1" y="125.9" width="12" height="13" rx="1" opacity="0.02"/>
      <rect x="1386.6" y="125.9" width="12" height="13" rx="1" opacity="0.15"/>
      <rect x="1402.0" y="125.9" width="12" height="13" rx="1" opacity="0.45"/>
      <rect x="1417.5" y="125.9" width="12" height="13" rx="1" opacity="0.67"/>
      <rect x="1432.9" y="125.9" width="12" height="13" rx="1" opacity="0.08"/>
      <rect x="1448.4" y="125.9" width="12" height="13" rx="1" opacity="0.63"/>
      <rect x="1463.8" y="125.9" width="12" height="13" rx="1" opacity="0.05"/>
      <rect x="1479.3" y="125.9" width="12" height="13" rx="1" opacity="0.28"/>
      <rect x="1293.9" y="141.6" width="12" height="13" rx="1" opacity="0.12"/>
      <rect x="1309.3" y="141.6" width="12" height="13" rx="1" opacity="0.05"/>
      <rect x="1324.8" y="141.6" width="12" height="13" rx="1" opacity="0.04"/>
      <rect x="1355.7" y="141.6" width="12" height="13" rx="1" opacity="0.21"/>
      <rect x="1371.1" y="141.6" width="12" height="13" rx="1" opacity="0.15"/>
      <rect x="1386.6" y="141.6" width="12" height="13" rx="1" opacity="0.51"/>
      <rect x="1402.0" y="141.6" width="12" height="13" rx="1" opacity="0.11"/>
      <rect x="1417.5" y="141.6" width="12" height="13" rx="1" opacity="0.03"/>
      <rect x="1432.9" y="141.6" width="12" height="13" rx="1" opacity="0.55"/>
      <rect x="1448.4" y="141.6" width="12" height="13" rx="1" opacity="0.11"/>
      <rect x="1463.8" y="141.6" width="12" height="13" rx="1" opacity="0.91"/>
      <rect x="1479.3" y="141.6" width="12" height="13" rx="1" opacity="0.57"/>
      <rect x="1263.0" y="157.3" width="12" height="13" rx="1" opacity="0.05"/>
      <rect x="1278.5" y="157.3" width="12" height="13" rx="1" opacity="0.03"/>
      <rect x="1293.9" y="157.3" width="12" height="13" rx="1" opacity="0.03"/>
      <rect x="1309.3" y="157.3" width="12" height="13" rx="1" opacity="0.15"/>
      <rect x="1324.8" y="157.3" width="12" height="13" rx="1" opacity="0.02"/>
      <rect x="1340.2" y="157.3" width="12" height="13" rx="1" opacity="0.25"/>
      <rect x="1355.7" y="157.3" width="12" height="13" rx="1" opacity="0.1"/>
      <rect x="1371.1" y="157.3" width="12" height="13" rx="1" opacity="0.03"/>
      <rect x="1386.6" y="157.3" width="12" height="13" rx="1" opacity="0.15"/>
      <rect x="1402.0" y="157.3" width="12" height="13" rx="1" opacity="0.03"/>
      <rect x="1417.5" y="157.3" width="12" height="13" rx="1" opacity="0.44"/>
      <rect x="1432.9" y="157.3" width="12" height="13" rx="1" opacity="0.03"/>
      <rect x="1448.4" y="157.3" width="12" height="13" rx="1" opacity="0.91"/>
      <rect x="1463.8" y="157.3" width="12" height="13" rx="1" opacity="0.43"/>
      <rect x="1479.3" y="157.3" width="12" height="13" rx="1" opacity="0.23"/>
      <rect x="1263.0" y="173.0" width="12" height="13" rx="1" opacity="0.02"/>
      <rect x="1278.5" y="173.0" width="12" height="13" rx="1" opacity="0.04"/>
      <rect x="1293.9" y="173.0" width="12" height="13" rx="1" opacity="0.03"/>
      <rect x="1309.3" y="173.0" width="12" height="13" rx="1" opacity="0.15"/>
      <rect x="1324.8" y="173.0" width="12" height="13" rx="1" opacity="0.04"/>
      <rect x="1340.2" y="173.0" width="12" height="13" rx="1" opacity="0.09"/>
      <rect x="1355.7" y="173.0" width="12" height="13" rx="1" opacity="0.02"/>
      <rect x="1371.1" y="173.0" width="12" height="13" rx="1" opacity="0.18"/>
      <rect x="1386.6" y="173.0" width="12" height="13" rx="1" opacity="0.05"/>
      <rect x="1402.0" y="173.0" width="12" height="13" rx="1" opacity="0.51"/>
      <rect x="1417.5" y="173.0" width="12" height="13" rx="1" opacity="0.21"/>
      <rect x="1432.9" y="173.0" width="12" height="13" rx="1" opacity="0.23"/>
      <rect x="1448.4" y="173.0" width="12" height="13" rx="1" opacity="0.23"/>
      <rect x="1463.8" y="173.0" width="12" height="13" rx="1" opacity="0.2"/>
      <rect x="1479.3" y="173.0" width="12" height="13" rx="1" opacity="0.74"/>
    </g>
  </g>

  <!-- Touchlab wordmark -->
  <g transform="translate(23.75 68) scale(1.1381) translate(-88.17 -79.13)">
    <path fill="#00BBC9" d="M141.26,95.91c0,9.39-6.65,16.82-15.75,16.82c-9.16,0-15.8-7.44-15.8-16.82c0-9.34,6.65-16.78,15.8-16.78 C134.61,79.13,141.26,86.56,141.26,95.91z M135.08,95.91c0-6-4.27-10.97-9.57-10.97c-5.34,0-9.62,4.97-9.62,10.97 c0,6.04,4.28,11.01,9.62,11.01C130.8,106.92,135.08,101.95,135.08,95.91z"/>
    <path fill="#00B1DB" d="M102.95,85.87v26.54h-6.13V85.87h-8.65v-5.72h23.42v5.72H102.95z"/>
    <path fill="#4DBEA9" d="M167.53,99.62c0,8.23-4.32,13.34-12.45,13.34c-8.13,0-12.41-5.11-12.41-13.34V80.15h6.13v19.66 c0,4.79,2.09,7.2,6.28,7.2c4.18,0,6.27-2.42,6.27-7.2V80.15h6.18V99.62z"/>
    <path fill="#6EC288" d="M184.49,112.96c-8.78,0-15.62-7.39-15.62-16.82s6.83-16.82,15.62-16.82c7.3,0,12.69,4.14,14.68,10.74h-6.65 c-1.44-2.93-4.32-5.11-8.04-5.11c-5.3,0-9.48,5.11-9.48,11.2c0,6.13,4.18,11.25,9.48,11.25c3.67,0,6.6-2.28,8.04-5.2h6.6 C197.08,108.73,191.64,112.96,184.49,112.96z"/>
    <path fill="#88C773" d="M226.51,112.4h-6.14V98.79h-13.76v13.62h-6.18V80.15h6.18v12.92h13.76V80.15h6.14V112.4z"/>
    <path fill="#A9CF52" d="M235.61,106.69h16.03v5.72h-22.22V80.15h6.18V106.69z"/>
    <path fill="#C8DA33" d="M258.49,105.94l-2.18,6.46h-6.51l11.25-32.25h7.76l11.25,32.25h-6.51l-2.18-6.46H258.49z M264.9,86.98 l-4.51,13.24h9.02L264.9,86.98z"/>
    <path fill="#E2E31B" d="M295.7,112.4h-15.71V80.15h14.87c6.46,0,9.71,3.35,9.71,8.74c0,2.69-1.16,4.88-3.16,6.32 c2.74,1.44,4.42,4.04,4.42,7.71C305.83,108.69,301.92,112.4,295.7,112.4z M286.12,85.73v7.11h8.74c2.09,0,3.76-1.44,3.76-3.58 c0-2.14-1.44-3.53-3.76-3.53H286.12z M294.72,98.46h-8.6v8.32h8.74c2.37,0,4.69-0.93,4.69-4.09 C299.55,99.99,297.84,98.46,294.72,98.46z"/>
  </g>

  <!-- kicker -->
  <text x="50" y="134" fill="#ffffff"
        font-family="JetBrains Mono, Roboto Mono, DejaVu Sans Mono, Menlo, Consolas, monospace"
        font-size="20" font-weight="600" letter-spacing="6">OPEN SOURCE</text>

  <!-- divider -->
  <rect x="325" y="19.8" width="4" height="160.4" fill="url(#tl-divider)"/>

  <!-- project name -->
  <text x="378" y="132.5" fill="#ffffff"
        font-family="JetBrains Mono, Roboto Mono, DejaVu Sans Mono, Menlo, Consolas, monospace"
        font-size="81" font-weight="700">.github</text>
</svg>
